<svg viewBox="0 0 120 120" xmlns="http://www.w3.org/2000/svg">
  <def>
    <rect id="c0" width="10" height="10" rx="3" fill="#eff2f5" stroke="#1f23280d" />
    <rect id="c1" width="10" height="10" rx="3" fill="#aceebb" stroke="#1f23280d" />
    <rect id="c2" width="10" height="10" rx="3" fill="#4ac26b" stroke="#1f23280d" />
    <rect id="c3" width="10" height="10" rx="3" fill="#2da44e" stroke="#1f23280d" />
    <rect id="c4" width="10" height="10" rx="3" fill="#116329" stroke="#1f23280d" />
  </def>
  <g>
    <use href="#c0" x="0" y="0" />
    <use href="#c0" x="0" y="12" />
    <use href="#c0" x="0" y="24" />
    <use href="#c0" x="0" y="36" />
    <use href="#c0" x="0" y="48" />
    <use href="#c0" x="0" y="60" />
    <use href="#c0" x="0" y="72" />
    <use href="#c0" x="0" y="84" />
    <use href="#c0" x="0" y="96" />
    <use href="#c0" x="0" y="108" />
  </g>
  <g>
    <use href="#c0" x="12" y="0" />
    <use href="#c0" x="12" y="12" />
    <use href="#c4" x="12" y="24" />
    <use href="#c4" x="12" y="36" />
    <use href="#c0" x="12" y="48" />
    <use href="#c0" x="12" y="60" />
    <use href="#c0" x="12" y="72" />
    <use href="#c1" x="12" y="84" />
    <use href="#c0" x="12" y="96" />
    <use href="#c0" x="12" y="108" />
  </g>
  <g>
    <use href="#c0" x="24" y="0" />
    <use href="#c4" x="24" y="12" />
    <use href="#c4" x="24" y="24" />
    <use href="#c4" x="24" y="36" />
    <use href="#c4" x="24" y="48" />
    <use href="#c0" x="24" y="60" />
    <use href="#c0" x="24" y="72" />
    <use href="#c0" x="24" y="84" />
    <use href="#c4" x="24" y="96" />
    <use href="#c0" x="24" y="108" />
  </g>
  <g>
    <use href="#c4" x="36" y="0" />
    <use href="#c4" x="36" y="12" />
    <use href="#c1" x="36" y="24" />
    <use href="#c3" x="36" y="36" />
    <use href="#c4" x="36" y="48" />
    <use href="#c4" x="36" y="60" />
    <use href="#c0" x="36" y="72" />
    <use href="#c0" x="36" y="84" />
    <use href="#c4" x="36" y="96" />
    <use href="#c4" x="36" y="108" />
  </g>
  <g>
    <use href="#c4" x="48" y="0" />
    <use href="#c4" x="48" y="12" />
    <use href="#c0" x="48" y="24" />
    <use href="#c0" x="48" y="36" />
    <use href="#c4" x="48" y="48" />
    <use href="#c4" x="48" y="60" />
    <use href="#c0" x="48" y="72" />
    <use href="#c0" x="48" y="84" />
    <use href="#c4" x="48" y="96" />
    <use href="#c4" x="48" y="108" />
  </g>
  <g>
    <use href="#c4" x="60" y="0" />
    <use href="#c4" x="60" y="12" />
    <use href="#c0" x="60" y="24" />
    <use href="#c0" x="60" y="36" />
    <use href="#c4" x="60" y="48" />
    <use href="#c4" x="60" y="60" />
    <use href="#c0" x="60" y="72" />
    <use href="#c0" x="60" y="84" />
    <use href="#c4" x="60" y="96" />
    <use href="#c4" x="60" y="108" />
  </g>
  <g>
    <use href="#c4" x="72" y="0" />
    <use href="#c4" x="72" y="12" />
    <use href="#c0" x="72" y="24" />
    <use href="#c0" x="72" y="36" />
    <use href="#c4" x="72" y="48" />
    <use href="#c4" x="72" y="60" />
    <use href="#c1" x="72" y="72" />
    <use href="#c3" x="72" y="84" />
    <use href="#c4" x="72" y="96" />
    <use href="#c4" x="72" y="108" />
  </g>
  <g>
    <use href="#c0" x="84" y="0" />
    <use href="#c4" x="84" y="12" />
    <use href="#c0" x="84" y="24" />
    <use href="#c0" x="84" y="36" />
    <use href="#c0" x="84" y="48" />
    <use href="#c4" x="84" y="60" />
    <use href="#c4" x="84" y="72" />
    <use href="#c4" x="84" y="84" />
    <use href="#c4" x="84" y="96" />
    <use href="#c0" x="84" y="108" />
  </g>
  <g>
    <use href="#c0" x="96" y="0" />
    <use href="#c0" x="96" y="12" />
    <use href="#c1" x="96" y="24" />
    <use href="#c0" x="96" y="36" />
    <use href="#c0" x="96" y="48" />
    <use href="#c0" x="96" y="60" />
    <use href="#c4" x="96" y="72" />
    <use href="#c4" x="96" y="84" />
    <use href="#c0" x="96" y="96" />
    <use href="#c0" x="96" y="108" />
  </g>
  <g>
    <use href="#c0" x="108" y="0" />
    <use href="#c0" x="108" y="12" />
    <use href="#c0" x="108" y="24" />
    <use href="#c0" x="108" y="36" />
    <use href="#c0" x="108" y="48" />
    <use href="#c0" x="108" y="60" />
    <use href="#c0" x="108" y="72" />
    <use href="#c0" x="108" y="84" />
    <use href="#c0" x="108" y="96" />
    <use href="#c0" x="108" y="108" />
  </g>
</svg>